<svg width="27" height="32" viewBox="0 0 27 32" fill="none" xmlns="http://www.w3.org/2000/svg">
<path d="M24.5252 7.87607C23.5618 7.63891 22.6713 8.1769 22.0022 8.67152C21.3431 9.163 20.7316 9.71543 20.176 10.3215C19.6306 10.9093 19.1323 11.5211 18.6681 12.1043C18.1348 12.7706 17.5875 13.4627 17.0431 14.1594C16.7632 14.5193 16.4839 14.8798 16.2052 15.2409L15.8148 14.6098C14.9096 13.3391 14.0818 12.2012 13.112 11.1428C11.9741 9.89977 10.8345 9.00188 9.6293 8.39837C8.47111 7.81701 7.18744 7.53017 5.89195 7.56324C4.94054 7.59092 3.55542 7.8004 2.35485 8.64384C1.81508 9.01853 1.35106 9.49194 0.987261 10.0391C0.569134 10.6986 0.289981 11.4366 0.166889 12.2077C0.0376073 13.0133 -0.0167622 13.8292 0.00447645 14.6448C0.0137045 15.5464 0.0413882 16.4332 0.0690723 17.2573C0.129054 19.0337 0.224103 20.8322 0.351449 22.6031C0.478796 24.3739 0.635673 26.1549 0.827616 27.9082C0.893135 28.5071 0.982646 29.2002 1.21981 29.8572C1.49665 30.613 1.81778 31.1251 2.24043 31.4703C2.64585 31.8083 3.15584 31.9955 3.68369 32C3.92091 32 4.15646 31.9601 4.3804 31.8818C4.82074 31.7126 5.22965 31.4709 5.5902 31.1667C5.88088 30.9397 6.16695 30.6923 6.46501 30.4127C7.66465 29.2841 8.64375 27.9839 9.52041 26.7474C9.98181 26.0931 10.4497 25.4231 10.8991 24.7753C11.3808 24.0795 11.88 23.3598 12.3756 22.6584C13.3759 21.2521 14.4057 19.8374 15.4466 18.4514C15.6989 18.1155 15.9517 17.7802 16.2052 17.4455C16.375 17.6495 16.5494 17.8599 16.7192 18.0758L16.7746 18.1468C16.9743 18.4096 17.1874 18.6619 17.4131 18.9026C18.0803 19.5883 18.8029 19.9583 19.5623 19.9998C20.3218 20.0414 21.0822 19.7285 21.9146 19.041C22.4822 18.559 22.9952 18.0163 23.4446 17.4224C23.9277 16.8115 24.3569 16.1597 24.7273 15.4744C25.507 14.0155 25.9998 12.5141 26.1502 11.1317C26.3016 9.79457 25.854 8.20366 24.5252 7.87607ZM13.8336 18.372L13.5014 18.8223C12.6164 18.8159 11.725 18.827 10.8677 19.0457C9.92183 19.2874 9.0424 19.7774 8.08268 19.9528C7.45501 20.0681 6.80974 20.0451 6.19186 19.8854C5.54129 19.7175 4.93777 19.4037 4.3195 19.1342C3.70122 18.8648 3.0488 18.6359 2.38161 18.6535C2.0731 18.6625 1.76945 18.7327 1.48834 18.8602C1.43759 17.7261 1.39606 16.5901 1.37391 15.4624V15.3858C1.34336 14.6232 1.35476 13.8595 1.40806 13.0982C1.41636 13.0059 1.42559 12.9136 1.43667 12.826L1.46066 12.6571C1.49019 12.4679 1.52802 12.2834 1.57047 12.109C1.61535 11.9216 1.67018 11.7368 1.73473 11.5553C1.74857 11.5174 1.76241 11.4787 1.77718 11.4408L1.83624 11.3024C1.85931 11.2526 1.88238 11.2028 1.90729 11.1539C1.97955 11.0116 2.05934 10.8733 2.1463 10.7395C2.18321 10.6823 2.22105 10.6269 2.26073 10.5734L2.28011 10.5476C2.29026 10.5356 2.29856 10.5264 2.30502 10.5171L2.30964 10.5116C2.30964 10.5116 2.30964 10.5116 2.30964 10.507V10.5014C2.48697 10.2857 2.68509 10.0878 2.90115 9.91084L2.95744 9.86655C3.01466 9.82533 3.07279 9.78473 3.13185 9.74474C3.24443 9.66907 3.36255 9.59709 3.48252 9.53065C3.60248 9.46421 3.72614 9.4033 3.85164 9.34609L3.919 9.31748C3.99098 9.28888 4.06388 9.26119 4.13771 9.23628C4.40459 9.14298 4.67783 9.06896 4.95531 9.0148C5.02267 9.00096 5.09096 8.98896 5.15833 8.97789L5.25706 8.96313C5.37795 8.94929 5.53391 8.93267 5.69632 8.92344C5.98734 8.90546 6.27919 8.90546 6.57021 8.92344C6.70956 8.93267 6.84705 8.94836 6.98916 8.96497L7.08606 8.97974C7.16634 8.99266 7.2457 9.00742 7.32599 9.02311C7.61196 9.07943 7.89424 9.15308 8.17127 9.24366C8.30877 9.2898 8.44811 9.33594 8.58007 9.39315L8.6539 9.42545C8.72957 9.45867 8.80432 9.49374 8.87814 9.52973C9.19568 9.68565 9.50381 9.86005 9.80094 10.052C9.94674 10.1443 10.0944 10.2449 10.2383 10.3492C10.3076 10.3981 10.3758 10.4488 10.4441 10.4996L10.5678 10.5974C11.1264 11.0483 11.649 11.5419 12.131 12.0739C12.3691 12.3332 12.6053 12.6054 12.8517 12.9044C12.9671 13.0447 13.0806 13.1813 13.1922 13.3271L13.3417 13.5172L13.3759 13.5624L13.3823 13.5707L13.4552 13.663C13.8428 14.1723 14.211 14.678 14.5792 15.1985L15.3414 16.3548C14.8284 17.0423 14.3199 17.7177 13.8336 18.372ZM24.8149 10.9822C24.8149 11.0385 24.8048 11.0948 24.7983 11.1539L24.7789 11.2655C24.7153 11.6254 24.6331 11.989 24.5353 12.347C24.4375 12.7051 24.3286 13.0419 24.2022 13.3824C24.1727 13.4646 24.1413 13.5458 24.1099 13.627L24.0573 13.758L23.965 13.9712C23.917 14.0801 23.8727 14.188 23.8183 14.2951C23.501 14.9575 23.1268 15.591 22.6999 16.1887C22.6491 16.2597 22.5974 16.3308 22.5458 16.4009L22.4442 16.5329C22.3317 16.675 22.2154 16.8162 22.0982 16.9527C21.8481 17.2425 21.5916 17.5129 21.3369 17.7574C21.1948 17.8931 21.06 18.013 20.9244 18.1219L20.8736 18.1607L20.8044 18.2114C20.7269 18.265 20.6485 18.3176 20.5682 18.3656C20.4879 18.4135 20.4187 18.4523 20.3412 18.4901L20.2978 18.5104C20.2762 18.5184 20.2553 18.528 20.2351 18.539L20.2009 18.552C20.1228 18.5808 20.043 18.6048 19.9619 18.6239C19.9407 18.6295 19.9185 18.6341 19.8964 18.6378L19.8447 18.6489H19.8235C19.7341 18.6553 19.6444 18.6553 19.555 18.6489L19.4941 18.6405L19.4285 18.6276C19.3529 18.6099 19.2783 18.5877 19.2052 18.5612L19.1794 18.5501C19.1489 18.5363 19.1185 18.5215 19.0871 18.5058C19.0197 18.4708 18.9505 18.4302 18.8832 18.3868L18.777 18.3139L18.6082 18.1708L18.5832 18.1515C18.5168 18.0906 18.4531 18.0287 18.3904 17.9669C18.1613 17.7245 17.9457 17.4697 17.7444 17.2037L17.6918 17.1373C17.4943 16.8872 17.2876 16.639 17.0874 16.3991L17.0486 16.352L17.7472 15.4477C18.016 15.1019 18.2858 14.7568 18.5565 14.4123L18.969 13.8863C19.8161 12.802 20.6928 11.6808 21.6894 10.7109C21.9764 10.4341 22.2661 10.1748 22.5504 9.94868L22.5744 9.92838C22.601 9.91198 22.6263 9.89346 22.65 9.87301L22.6805 9.84902C22.7598 9.78903 22.8411 9.7309 22.9223 9.67461C23.0864 9.55888 23.2567 9.45229 23.4326 9.35532C23.4704 9.33502 23.5092 9.31564 23.5479 9.29626L23.5655 9.2898C23.5815 9.2836 23.5972 9.27651 23.6125 9.26857C23.6922 9.23831 23.7735 9.21274 23.8561 9.19198L23.8967 9.18275H23.9124C23.9319 9.18285 23.9512 9.17974 23.9696 9.17353H23.9946C24.0204 9.17214 24.0463 9.17214 24.0721 9.17353H24.1219H24.1422C24.1856 9.18368 24.2271 9.19752 24.2696 9.21136H24.2779C24.3074 9.22613 24.3369 9.24274 24.3784 9.26765L24.4117 9.23258L24.3849 9.27042L24.396 9.27965C24.4394 9.31953 24.4807 9.36173 24.5196 9.40607L24.5455 9.44391C24.5796 9.49743 24.611 9.5528 24.6377 9.60909L24.6608 9.65707C24.6839 9.72075 24.706 9.78534 24.7254 9.85086C24.7513 9.94314 24.7688 10.0354 24.7863 10.1323V10.1508L24.802 10.2301C24.802 10.2652 24.8085 10.3012 24.8112 10.3363C24.8168 10.4092 24.8205 10.4821 24.8214 10.555C24.8267 10.6974 24.8246 10.84 24.8149 10.9822Z" fill="#000033"/>
<path d="M12.6764 7.27536C13.3466 7.27536 13.8899 6.73206 13.8899 6.06188C13.8899 5.39169 13.3466 4.84839 12.6764 4.84839C12.0062 4.84839 11.4629 5.39169 11.4629 6.06188C11.4629 6.73206 12.0062 7.27536 12.6764 7.27536Z" fill="#000033"/>
<path d="M10.7172 3.50665C11.064 3.50665 11.403 3.40382 11.6913 3.21116C11.9796 3.0185 12.2043 2.74467 12.3371 2.42429C12.4698 2.10391 12.5045 1.75138 12.4368 1.41127C12.3692 1.07116 12.2022 0.758744 11.957 0.513537C11.7118 0.268331 11.3994 0.101343 11.0592 0.0336905C10.7191 -0.0339619 10.3666 0.000759551 10.0462 0.133464C9.72585 0.266169 9.45201 0.490896 9.25936 0.779228C9.0667 1.06756 8.96387 1.40655 8.96387 1.75332C8.96387 2.21833 9.14859 2.6643 9.4774 2.99311C9.80622 3.32192 10.2522 3.50665 10.7172 3.50665Z" fill="#000033"/>
</svg>
